<svg width="30" height="26" viewBox="0 0 30 26" fill="none" xmlns="http://www.w3.org/2000/svg">
<path d="M11.8359 8.1087C11.8379 8.1087 11.8398 8.1087 11.8418 8.1087C12.5576 8.1087 13.251 8.24933 13.9053 8.5257C14.4102 8.73859 15 8.50519 15.2158 7.99445C15.4307 7.48566 15.1934 6.89874 14.6846 6.6839C13.7832 6.30206 12.8262 6.1087 11.8438 6.1087C11.8408 6.1087 11.8379 6.1087 11.835 6.1087C7.79883 6.1087 4.51465 9.39191 4.51465 13.428C4.51465 17.4642 7.79883 20.7484 11.835 20.7484C15.8701 20.7484 19.1533 17.4642 19.1533 13.428C19.1533 12.8753 18.7061 12.428 18.1533 12.428C17.6006 12.428 17.1533 12.8753 17.1533 13.428C17.1533 16.3616 14.7676 18.7484 11.835 18.7484C8.90137 18.7484 6.51465 16.3616 6.51465 13.428C6.51465 10.4954 8.90137 8.1087 11.8359 8.1087Z" fill="white"/>
<path d="M22.71 13.7132C22.168 13.6458 21.665 14.0403 21.6006 14.5901C21.0195 19.5345 16.8213 23.263 11.835 23.263C6.41211 23.263 2 18.8509 2 13.428C2 8.00519 6.41211 3.59406 11.835 3.59406C13.2588 3.59406 14.6318 3.89093 15.915 4.47687C16.4189 4.70734 17.0107 4.48468 17.2402 3.98175C17.4688 3.47882 17.248 2.88605 16.7451 2.65656C15.1992 1.95148 13.5469 1.59406 11.835 1.59406C5.30957 1.59406 0 6.90265 0 13.428C0 19.9534 5.30957 25.263 11.835 25.263C17.8359 25.263 22.8877 20.7747 23.5869 14.8226C23.6514 14.2747 23.2588 13.7776 22.71 13.7132Z" fill="white"/>
<path d="M29.4736 4.61072C29.3252 4.12146 28.7764 4.10583 28.0811 4.0863C27.4932 4.06872 26.5088 4.0404 26.25 3.67712C25.9912 3.31579 26.2842 2.37439 26.46 1.81287C26.667 1.14978 26.8301 0.625365 26.416 0.325561C25.9912 0.0198965 25.4668 0.390014 25.1211 0.636107L22.9219 2.20544C21.1521 3.46741 20.6458 5.07617 21.4856 6.57642C21.397 6.57886 21.3086 6.59595 21.2295 6.64685L13.8152 11.4569C13.3081 10.9474 12.6072 10.6312 11.833 10.6312C10.291 10.6312 9.03711 11.8861 9.03711 13.4281C9.03711 14.9701 10.291 16.225 11.833 16.225C13.376 16.225 14.6309 14.9701 14.6309 13.4281C14.6309 13.0197 14.5381 12.6342 14.3799 12.2839L21.7744 7.48669C21.8665 7.42688 21.9238 7.33862 21.9604 7.24329C22.4521 7.78931 23.0544 8.13074 23.7363 8.21228C23.8496 8.22595 23.9639 8.23279 24.0801 8.23279C24.8633 8.23279 25.6953 7.92224 26.5596 7.30505L28.7598 5.73669C29.1055 5.48962 29.6279 5.11658 29.4736 4.61072ZM11.833 14.225C11.3945 14.225 11.0371 13.8676 11.0371 13.4281C11.0371 12.9886 11.3945 12.6312 11.833 12.6312C12.2725 12.6312 12.6309 12.9886 12.6309 13.4281C12.6309 13.8676 12.2725 14.225 11.833 14.225ZM25.9795 6.4906C25.1953 7.04919 24.4814 7.29626 23.8555 7.22009C23.3262 7.15662 22.8721 6.86365 22.5059 6.34997C21.707 5.22986 22.0615 4.04724 23.502 3.0199L25.4746 1.61169C25.2188 2.43591 24.9092 3.52185 25.4355 4.25818C25.9619 4.99744 27.0908 5.05701 27.9531 5.0824L25.9795 6.4906Z" fill="white"/>
</svg>
