<svg width="31" height="28" viewBox="0 0 31 28" fill="none" xmlns="http://www.w3.org/2000/svg">
<path d="M27.3406 0.46521H13.3767C11.5027 0.46521 9.97729 1.99158 9.97729 3.86755V5.72986H4.13647C2.26343 5.72986 0.73999 7.25525 0.73999 9.13123V18.9213C0.73999 20.8002 2.26343 22.3295 4.13647 22.3295H4.64038L4.57104 26.1556C4.56421 26.5248 4.7605 26.8666 5.08179 27.0463C5.23413 27.1322 5.40308 27.1742 5.57104 27.1742C5.75854 27.1742 5.94507 27.1215 6.10815 27.0179L13.4656 22.3295H18.0876C19.9329 22.3295 21.4329 20.8446 21.4785 19.0053L25.3113 21.7338C25.4841 21.8568 25.6873 21.9193 25.8914 21.9193C26.0505 21.9193 26.2097 21.8812 26.3562 21.8051C26.6902 21.6293 26.8972 21.2816 26.8914 20.9047L26.8337 17.0638H27.3406C29.2146 17.0638 30.74 15.5375 30.74 13.6615V3.86755C30.74 1.99158 29.2146 0.46521 27.3406 0.46521ZM19.4871 18.9213C19.4871 19.6976 18.8591 20.3295 18.0876 20.3295H13.1736C12.9832 20.3295 12.7966 20.3842 12.6365 20.4857L6.60425 24.3295L6.65894 21.348C6.66382 21.0795 6.5603 20.8207 6.3728 20.6293C6.18433 20.4369 5.92749 20.3295 5.65894 20.3295H4.13647C3.36597 20.3295 2.73999 19.6976 2.73999 18.9213V9.13123C2.73999 8.35876 3.36597 7.72986 4.13647 7.72986H18.0876C18.8591 7.72986 19.4871 8.35876 19.4871 9.13123V18.9213ZM28.74 13.6615C28.74 14.4349 28.1121 15.0638 27.3406 15.0638H25.8181C25.5505 15.0638 25.2937 15.1713 25.1052 15.3617C24.9177 15.5531 24.8142 15.8109 24.8181 16.0785L24.8621 18.9584L21.4871 16.5565V9.13123C21.4871 7.25525 19.9617 5.72986 18.0876 5.72986H11.9773V3.86755C11.9773 3.10779 12.6179 2.46521 13.3767 2.46521H27.3406C28.0994 2.46521 28.74 3.10779 28.74 3.86755V13.6615Z" fill="white"/>
</svg>
