<svg width="24" height="25" viewBox="0 0 24 25" fill="none" xmlns="http://www.w3.org/2000/svg">
<path d="M15 13.45H8C7.59 13.45 7.25 13.11 7.25 12.7C7.25 12.29 7.59 11.95 8 11.95H15C15.41 11.95 15.75 12.29 15.75 12.7C15.75 13.11 15.41 13.45 15 13.45Z" fill="#101828"/>
<path d="M12.38 17.45H8C7.59 17.45 7.25 17.11 7.25 16.7C7.25 16.29 7.59 15.95 8 15.95H12.38C12.79 15.95 13.13 16.29 13.13 16.7C13.13 17.11 12.79 17.45 12.38 17.45Z" fill="#101828"/>
<path d="M14 7.25H10C9.04 7.25 7.25 7.25 7.25 4.5C7.25 1.75 9.04 1.75 10 1.75H14C14.96 1.75 16.75 1.75 16.75 4.5C16.75 5.46 16.75 7.25 14 7.25ZM10 3.25C9.01 3.25 8.75 3.25 8.75 4.5C8.75 5.75 9.01 5.75 10 5.75H14C15.25 5.75 15.25 5.49 15.25 4.5C15.25 3.25 14.99 3.25 14 3.25H10Z" fill="#101828"/>
<path d="M15 23.25H9C3.38 23.25 2.25 20.67 2.25 16.5V10.5C2.25 5.93999 3.9 3.98999 7.96 3.77999C8.36 3.75999 8.73 4.06999 8.75 4.48999C8.77 4.90999 8.45 5.24999 8.04 5.26999C5.2 5.42999 3.75 6.27999 3.75 10.5V16.5C3.75 20.2 4.48 21.75 9 21.75H15C19.52 21.75 20.25 20.2 20.25 16.5V10.5C20.25 6.27999 18.8 5.42999 15.96 5.26999C15.55 5.24999 15.23 4.88999 15.25 4.47999C15.27 4.06999 15.63 3.74999 16.04 3.76999C20.1 3.98999 21.75 5.93999 21.75 10.49V16.49C21.75 20.67 20.62 23.25 15 23.25Z" fill="#101828"/>
</svg>
