<svg width="28" height="28" viewBox="0 0 28 28" fill="none" xmlns="http://www.w3.org/2000/svg">
<path d="M9.33325 6.70837C8.85492 6.70837 8.45825 6.31171 8.45825 5.83337V2.33337C8.45825 1.85504 8.85492 1.45837 9.33325 1.45837C9.81159 1.45837 10.2083 1.85504 10.2083 2.33337V5.83337C10.2083 6.31171 9.81159 6.70837 9.33325 6.70837Z" fill="#101828"/>
<path d="M18.6667 6.70837C18.1884 6.70837 17.7917 6.31171 17.7917 5.83337V2.33337C17.7917 1.85504 18.1884 1.45837 18.6667 1.45837C19.1451 1.45837 19.5417 1.85504 19.5417 2.33337V5.83337C19.5417 6.31171 19.1451 6.70837 18.6667 6.70837Z" fill="#101828"/>
<path d="M9.91667 16.9167C9.765 16.9167 9.61333 16.8817 9.47333 16.8234C9.32167 16.7651 9.205 16.6834 9.08833 16.5784C8.87833 16.3567 8.75 16.065 8.75 15.75C8.75 15.5984 8.785 15.4467 8.84334 15.3067C8.90167 15.1667 8.98333 15.0384 9.08833 14.9217C9.205 14.8167 9.32167 14.735 9.47333 14.6767C9.89333 14.5017 10.4183 14.595 10.745 14.9217C10.955 15.1434 11.0833 15.4467 11.0833 15.75C11.0833 15.82 11.0717 15.9017 11.06 15.9834C11.0483 16.0534 11.025 16.1234 10.99 16.1934C10.9667 16.2634 10.9317 16.3334 10.885 16.4034C10.85 16.4617 10.7917 16.52 10.745 16.5784C10.5233 16.7884 10.22 16.9167 9.91667 16.9167Z" fill="#101828"/>
<path d="M13.9999 16.9166C13.8483 16.9166 13.6966 16.8817 13.5566 16.8233C13.4049 16.765 13.2883 16.6833 13.1716 16.5783C12.9616 16.3566 12.8333 16.065 12.8333 15.75C12.8333 15.5983 12.8683 15.4466 12.9266 15.3066C12.9849 15.1666 13.0666 15.0383 13.1716 14.9217C13.2883 14.8167 13.4049 14.735 13.5566 14.6766C13.9766 14.49 14.5016 14.595 14.8283 14.9217C15.0383 15.1433 15.1666 15.4466 15.1666 15.75C15.1666 15.82 15.1549 15.9017 15.1433 15.9833C15.1316 16.0533 15.1083 16.1233 15.0733 16.1933C15.0499 16.2633 15.0149 16.3333 14.9683 16.4033C14.9333 16.4616 14.8749 16.52 14.8283 16.5783C14.6066 16.7883 14.3033 16.9166 13.9999 16.9166Z" fill="#101828"/>
<path d="M18.0834 16.9166C17.9317 16.9166 17.7801 16.8817 17.6401 16.8233C17.4884 16.765 17.3717 16.6833 17.2551 16.5783C17.2084 16.52 17.1617 16.4616 17.1151 16.4033C17.0684 16.3333 17.0334 16.2633 17.0101 16.1933C16.9751 16.1233 16.9517 16.0533 16.9401 15.9833C16.9284 15.9017 16.9167 15.82 16.9167 15.75C16.9167 15.4466 17.0451 15.1433 17.2551 14.9217C17.3717 14.8167 17.4884 14.735 17.6401 14.6766C18.0717 14.49 18.5851 14.595 18.9117 14.9217C19.1217 15.1433 19.2501 15.4466 19.2501 15.75C19.2501 15.82 19.2384 15.9017 19.2267 15.9833C19.2151 16.0533 19.1917 16.1233 19.1567 16.1933C19.1334 16.2633 19.0984 16.3333 19.0518 16.4033C19.0168 16.4616 18.9584 16.52 18.9117 16.5783C18.6901 16.7883 18.3867 16.9166 18.0834 16.9166Z" fill="#101828"/>
<path d="M9.91667 21C9.765 21 9.61333 20.965 9.47333 20.9067C9.33333 20.8484 9.205 20.7667 9.08833 20.6617C8.87833 20.44 8.75 20.1367 8.75 19.8333C8.75 19.6817 8.785 19.53 8.84334 19.39C8.90167 19.2383 8.98333 19.11 9.08833 19.005C9.52 18.5734 10.3133 18.5734 10.745 19.005C10.955 19.2267 11.0833 19.53 11.0833 19.8333C11.0833 20.1367 10.955 20.44 10.745 20.6617C10.5233 20.8717 10.22 21 9.91667 21Z" fill="#101828"/>
<path d="M13.9999 21C13.6966 21 13.3933 20.8717 13.1716 20.6617C12.9616 20.44 12.8333 20.1367 12.8333 19.8333C12.8333 19.6817 12.8683 19.53 12.9266 19.39C12.9849 19.2383 13.0666 19.11 13.1716 19.005C13.6033 18.5734 14.3966 18.5734 14.8283 19.005C14.9333 19.11 15.0149 19.2383 15.0733 19.39C15.1316 19.53 15.1666 19.6817 15.1666 19.8333C15.1666 20.1367 15.0383 20.44 14.8283 20.6617C14.6066 20.8717 14.3033 21 13.9999 21Z" fill="#101828"/>
<path d="M18.0834 21C17.7801 21 17.4767 20.8717 17.2551 20.6617C17.1501 20.5567 17.0684 20.4284 17.0101 20.2767C16.9518 20.1367 16.9167 19.985 16.9167 19.8334C16.9167 19.6817 16.9518 19.53 17.0101 19.39C17.0684 19.2383 17.1501 19.11 17.2551 19.005C17.5234 18.7367 17.9317 18.6083 18.3051 18.69C18.3867 18.7017 18.4567 18.725 18.5267 18.76C18.5967 18.7833 18.6668 18.8184 18.7368 18.865C18.7951 18.9 18.8534 18.9584 18.9117 19.005C19.1217 19.2267 19.2501 19.53 19.2501 19.8334C19.2501 20.1367 19.1217 20.44 18.9117 20.6617C18.6901 20.8717 18.3867 21 18.0834 21Z" fill="#101828"/>
<path d="M23.9166 11.48H4.08325C3.60492 11.48 3.20825 11.0833 3.20825 10.605C3.20825 10.1266 3.60492 9.72998 4.08325 9.72998H23.9166C24.3949 9.72998 24.7916 10.1266 24.7916 10.605C24.7916 11.0833 24.3949 11.48 23.9166 11.48Z" fill="#101828"/>
<path d="M18.6667 26.5417H9.33333C5.075 26.5417 2.625 24.0917 2.625 19.8334V9.91671C2.625 5.65837 5.075 3.20837 9.33333 3.20837H18.6667C22.925 3.20837 25.375 5.65837 25.375 9.91671V19.8334C25.375 24.0917 22.925 26.5417 18.6667 26.5417ZM9.33333 4.95837C5.99667 4.95837 4.375 6.58004 4.375 9.91671V19.8334C4.375 23.17 5.99667 24.7917 9.33333 24.7917H18.6667C22.0033 24.7917 23.625 23.17 23.625 19.8334V9.91671C23.625 6.58004 22.0033 4.95837 18.6667 4.95837H9.33333Z" fill="#101828"/>
</svg>
