<svg width="29" height="28" viewBox="0 0 29 28" fill="none" xmlns="http://www.w3.org/2000/svg">
<path d="M14.4999 26.6117C13.6949 26.6117 12.9366 26.2034 12.3999 25.4917L10.6499 23.1584C10.6149 23.1117 10.4749 23.0417 10.4049 23.0417H9.83325C4.96825 23.0417 1.95825 21.7234 1.95825 15.1667V9.33337C1.95825 4.17671 4.67659 1.45837 9.83325 1.45837H16.8333C17.3116 1.45837 17.7083 1.85504 17.7083 2.33337C17.7083 2.81171 17.3116 3.20837 16.8333 3.20837H9.83325C5.65659 3.20837 3.70825 5.15671 3.70825 9.33337V15.1667C3.70825 20.44 5.51659 21.2917 9.83325 21.2917H10.4166C11.0116 21.2917 11.6883 21.63 12.0499 22.1084L13.7999 24.4417C14.2083 24.9784 14.7916 24.9784 15.1999 24.4417L16.9499 22.1084C17.3349 21.595 17.9416 21.2917 18.5833 21.2917H19.1666C23.3433 21.2917 25.2916 19.3434 25.2916 15.1667V11.6667C25.2916 11.1884 25.6883 10.7917 26.1666 10.7917C26.6449 10.7917 27.0416 11.1884 27.0416 11.6667V15.1667C27.0416 20.3234 24.3233 23.0417 19.1666 23.0417H18.5833C18.4899 23.0417 18.4083 23.0884 18.3499 23.1584L16.5999 25.4917C16.0633 26.2034 15.3049 26.6117 14.4999 26.6117Z" fill="#101828"/>
<path d="M14.4999 14C13.8466 14 13.3333 13.475 13.3333 12.8333C13.3333 12.1916 13.8583 11.6666 14.4999 11.6666C15.1416 11.6666 15.6666 12.1916 15.6666 12.8333C15.6666 13.475 15.1533 14 14.4999 14Z" fill="#101828"/>
<path d="M19.1667 14C18.5133 14 18 13.475 18 12.8333C18 12.1916 18.525 11.6666 19.1667 11.6666C19.8083 11.6666 20.3333 12.1916 20.3333 12.8333C20.3333 13.475 19.82 14 19.1667 14Z" fill="#101828"/>
<path d="M9.83341 14C9.18008 14 8.66675 13.475 8.66675 12.8333C8.66675 12.1916 9.19175 11.6666 9.83341 11.6666C10.4751 11.6666 11.0001 12.1916 11.0001 12.8333C11.0001 13.475 10.4867 14 9.83341 14Z" fill="#101828"/>
<path d="M23.2499 9.04171C21.1616 9.04171 19.4583 7.33837 19.4583 5.25004C19.4583 3.16171 21.1616 1.45837 23.2499 1.45837C25.3383 1.45837 27.0416 3.16171 27.0416 5.25004C27.0416 7.33837 25.3383 9.04171 23.2499 9.04171ZM23.2499 3.20837C22.1299 3.20837 21.2083 4.13004 21.2083 5.25004C21.2083 6.37004 22.1299 7.29171 23.2499 7.29171C24.3699 7.29171 25.2916 6.37004 25.2916 5.25004C25.2916 4.13004 24.3699 3.20837 23.2499 3.20837Z" fill="#F04438"/>
</svg>
