<svg width="29" height="28" viewBox="0 0 29 28" fill="none" xmlns="http://www.w3.org/2000/svg">
<path d="M14.25 12.2733C13.7717 12.2733 13.375 11.8766 13.375 11.3983V7.51331C13.375 7.03497 13.7717 6.63831 14.25 6.63831C14.7283 6.63831 15.125 7.03497 15.125 7.51331V11.3983C15.125 11.8883 14.7283 12.2733 14.25 12.2733Z" fill="#F04438"/>
<path d="M14.2733 23.7417C11.2633 23.7417 8.26493 23.2633 5.40659 22.3067C4.34493 21.9567 3.53993 21.1983 3.18993 20.2417C2.83993 19.285 2.95659 18.1883 3.52826 17.2317L5.00993 14.7583C5.33659 14.21 5.62826 13.1833 5.62826 12.5417V10.0917C5.62826 5.31999 9.50159 1.44666 14.2733 1.44666C19.0449 1.44666 22.9183 5.31999 22.9183 10.0917V12.5417C22.9183 13.1717 23.2099 14.21 23.5366 14.7583L25.0183 17.2317C25.5666 18.1417 25.6599 19.2267 25.2983 20.2183C24.9366 21.21 24.1433 21.9683 23.1399 22.3067C20.2816 23.275 17.2833 23.7417 14.2733 23.7417ZM14.2733 3.20832C10.4699 3.20832 7.37826 6.29999 7.37826 10.1033V12.5533C7.37826 13.4983 7.00493 14.8633 6.51493 15.6683L5.03326 18.1533C4.72993 18.655 4.65993 19.1917 4.83493 19.6583C5.00993 20.125 5.40659 20.475 5.96659 20.6617C11.3333 22.4467 17.2366 22.4467 22.6033 20.6617C23.1049 20.4983 23.4899 20.125 23.6649 19.635C23.8516 19.145 23.7933 18.6083 23.5249 18.1533L22.0433 15.68C21.5533 14.875 21.1799 13.51 21.1799 12.565V10.115C21.1683 6.29999 18.0766 3.20832 14.2733 3.20832Z" fill="#101828"/>
<path d="M14.25 26.7167C13.0017 26.7167 11.7767 26.2033 10.89 25.3167C10.0033 24.43 9.48999 23.205 9.48999 21.9567H11.24C11.24 22.75 11.5667 23.52 12.1267 24.08C12.6867 24.64 13.4567 24.9667 14.25 24.9667C15.9067 24.9667 17.26 23.6133 17.26 21.9567H19.01C19.01 24.5817 16.875 26.7167 14.25 26.7167Z" fill="#101828"/>
</svg>
